OpenSim_Sub09_EMGBaseline_GRF.mot
version=1
nRows=63
nColumns=19
inDegrees=no
endheader
time	lFx	lFy	lFz	lCOPx	lCOPy	lCOPz	rFx	rFy	rFz	rCOPx	rCOPy	rCOPz	lMx	lMy	lMz	rMx	rMy	rMz
36.50000000	-57.88200002	543.82857996	36.54073345	1.18990271	0	-0.65044824	59.70359482	633.38580460	-57.48093506	0.92382155	0	-0.42457104	0	1.78296695	0	0	1.04811365	0
36.51000000	-60.21026219	556.36683399	45.25937593	1.18562021	0	-0.65250658	62.49910888	629.11397043	-54.79400395	0.92051067	0	-0.42476147	0	0.19564133	0	0	1.13062662	0
36.52000000	-60.76061640	567.08195487	51.39173758	1.18111977	0	-0.65395406	66.24240545	622.58109239	-50.77176118	0.91601502	0	-0.42528990	0	-0.94773374	0	0	1.38678334	0
36.53000000	-59.77389175	579.47223043	55.04662196	1.17637925	0	-0.65480846	69.81627094	610.07265258	-45.83740734	0.91101946	0	-0.42599370	0	-1.52404050	0	0	1.73019994	0.00000000
36.54000000	-57.32578483	595.94021935	56.91385542	1.17133039	0	-0.65519951	72.37216149	589.46461159	-40.07572049	0.90606432	0	-0.42673883	0	-1.62968461	0	0	2.08116828	0
36.55000000	-53.99101201	616.46299719	57.74751304	1.16603723	0	-0.65532616	73.42561273	560.28164549	-33.79170824	0.90141336	0	-0.42750662	0	-1.46849862	0	0	2.42321866	0
36.56000000	-50.36304488	638.93452755	58.19259107	1.16040841	0	-0.65534826	72.64394770	523.07069099	-27.18667828	0.89725217	0	-0.42839951	0	-1.19727102	0	0	2.74040551	0
36.57000000	-46.78170981	660.90640614	58.69169117	1.15448735	0	-0.65537453	69.87808396	479.31630616	-20.32045924	0.89373471	0	-0.42948336	0	-0.94533654	0	0	3.01168156	0
36.58000000	-43.47132715	680.62126830	59.15085526	1.14850763	0	-0.65539496	65.29622250	431.07057029	-13.46910117	0.89081739	0	-0.43067502	0	-0.74187026	0	0	3.24408727	0.00000000
36.59000000	-40.64056598	697.51864230	59.15421162	1.14270651	0	-0.65536797	59.20678563	380.07738408	-7.08497719	0.88837073	0	-0.43189668	0	-0.49932699	0	0	3.39833074	-0.00000000
36.60000000	-38.41713702	711.62367514	58.63258702	1.13712504	0	-0.65527748	51.79281483	327.46980270	-1.63365752	0.88692777	0	-0.43324898	0	-0.18150907	0	0	3.37779405	-0.00000000
36.61000000	-36.48789949	722.75095961	57.78067704	1.13166543	0	-0.65516434	43.26949916	274.25580032	2.40830062	0.88768846	0	-0.43543987	0	0.15771604	0	0	3.11629261	0.00000000
36.62000000	-34.49572262	730.46961197	56.98851176	1.12623243	0	-0.65511934	33.86470601	222.49135256	4.44966078	0.89273337	0	-0.43961643	0	0.41675482	0	0	2.62384850	-0.00000000
36.63000000	-32.32376218	734.41149488	56.53301511	1.12074147	0	-0.65522327	24.06964275	175.03903107	4.31553893	0.90304779	0	-0.44632802	0	0.50437423	0	0	1.96620370	0
36.64000000	-30.13859221	734.25945214	56.38468988	1.11531391	0	-0.65548539	14.58372309	134.52751623	2.45520737	0.91495359	0	-0.45320416	0	0.38167282	0	0	1.28120628	0
36.65000000	-28.03162099	729.87593113	56.28069198	1.11003915	0	-0.65586231	5.98454748	102.03873943	-0.03810065	0.91298352	0	-0.45126195	0	0.07598060	0	0	0.71868309	0
36.66000000	-25.96665550	721.72519396	55.86487911	1.10485022	0	-0.65632759	-0.97310433	76.63958050	-2.08176166	0.86305726	0	-0.42194345	0	-0.29954295	0	0	0.34108693	0
36.67000000	-23.94680640	711.05734936	55.07857468	1.09969252	0	-0.65689169	-5.74494491	56.45634539	-3.27700049	0.72023114	0	-0.34235108	0	-0.68247513	0	0	0.15999839	0
36.68000000	-22.16881073	699.49618284	54.11816270	1.09480842	0	-0.65757781	-8.27777380	40.01016554	-3.82274824	0.47254817	0	-0.21340904	0	-1.05492110	0	0	0.11602677	-0.00000000
36.69000000	-20.87378141	688.05953189	53.15282088	1.09028647	0	-0.65840302	-9.31405248	26.74273138	-3.73527443	0.20894802	0	-0.08814329	0	-1.40914752	0	0	0.06307257	0.00000000
36.70000000	-19.98235784	676.89332511	52.28054750	1.08589634	0	-0.65932707	-8.91173672	16.08524188	-3.04373989	0.04398480	0	-0.01484312	0	-1.77544591	0	0	0.02027508	0.00000000
36.71000000	-19.20792833	666.03875350	51.47562437	1.08129844	0	-0.66028800	-6.32246410	7.63490183	-1.89416154	-0.01962207	0	0.01127151	0	-2.17614102	0	0	-0.00027793	0.00000000
36.72000000	-18.31324416	656.17968717	50.57940584	1.07656325	0	-0.66127186	-2.96062363	2.01901095	-0.58430292	-0.02742861	0	0.01300703	0	-2.58695958	0	0	-0.00557117	-0.00000000
36.73000000	-17.22082547	648.21830715	49.53985921	1.07187453	0	-0.66224869	-0.85300886	-0.43213170	0.04290983	-0.01695155	0	0.00752007	0	-2.93942165	0	0	-0.00442090	0.00000000
36.74000000	-15.84999827	642.65322695	48.42643397	1.06706872	0	-0.66319740	-0.03667018	-0.82462729	0.11468570	-0.00644110	0	0.00263611	0	-3.24955283	0	0	-0.00209705	0.00000000
36.75000000	-14.18769184	639.35069504	47.29328281	1.06175116	0	-0.66408765	0.06541880	-0.39073496	0.23396864	-0.00072546	0	0.00014332	0	-3.52731850	0	0	-0.00052578	0.00000000
36.76000000	-12.17976902	637.83820925	46.22080568	1.05586308	0	-0.66486585	-0.08483407	0.12585369	0.17420769	0.00111343	0	-0.00057959	0	-3.77437570	0	0	0.00012890	0.00000000
36.77000000	-9.90362007	637.70534623	45.42717592	1.04963078	0	-0.66547025	-0.14668156	0.36897837	-0.00436263	0.00108951	0	-0.00050534	0	-4.03000457	0	0	0.00024264	-0.00000000
36.78000000	-7.39035441	638.70288988	45.10916777	1.04300124	0	-0.66589477	-0.12749970	0.38392784	0.02486452	0.00058526	0	-0.00025480	0	-4.30926471	0	0	0.00016174	-0.00000000
36.79000000	-4.58094679	640.83569917	45.34792236	1.03601833	0	-0.66625031	-0.12667334	0.34499846	0.04263251	0.00018479	0	-0.00007228	0	-4.60493609	0	0	0.00006649	0.00000000
36.80000000	-1.51524275	644.23508665	46.19064562	1.02890939	0	-0.66661333	-0.14718140	0.34419972	-0.01933810	-0.00000527	0	0.00000889	0	-4.91598061	0	0	0.00001098	-0.00000000
36.81000000	1.54134339	648.92428886	47.45259479	1.02195327	0	-0.66702680	-0.16386438	0.32155135	0.05234566	-0.00005299	0	0.00002623	0	-5.25275524	0	0	-0.00000868	0.00000000
36.82000000	4.37985683	654.74310486	48.85944284	1.01520116	0	-0.66753467	-0.15803303	0.28067976	0.10734418	-0.00004135	0	0.00001882	0	-5.63652192	0	0	-0.00000990	-0.00000000
36.83000000	7.17015232	661.53532782	50.20835406	1.00854365	0	-0.66810528	-0.10786912	0.32721586	0.04968890	-0.00001939	0	0.00000826	0	-6.04758115	0	0	-0.00000569	0.00000000
36.84000000	10.18454057	669.29878374	51.33847352	1.00189855	0	-0.66864206	-0.06713826	0.43153287	-0.00683371	-0.00000473	0	0.00000170	0	-6.40043975	0	0	-0.00000198	0.00000000
36.85000000	13.47064191	678.03656898	52.17139739	0.99535172	0	-0.66909109	-0.04721033	0.47059412	-0.05485396	0.00000129	0	-0.00000081	0	-6.63948747	0	0	-0.00000010	-0.00000000
36.86000000	16.76088218	687.44361590	52.69377095	0.98902404	0	-0.66945551	-0.03684545	0.42663907	-0.07989086	0.00000229	0	-0.00000110	0	-6.77924082	0	0	0.00000044	-0.00000000
36.87000000	19.96507203	697.01184178	52.97529409	0.98287876	0	-0.66976185	-0.03174591	0.42004416	-0.02736152	0.00000151	0	-0.00000067	0	-6.83585252	0	0	0.00000038	-0.00000000
36.88000000	23.09684784	706.18825325	53.23925529	0.97687027	0	-0.67003684	-0.04004664	0.45186783	0.06082760	0.00000061	0	-0.00000025	0	-6.83459676	0	0	0.00000019	-0.00000000
36.89000000	26.16911100	714.49793219	53.62068580	0.97095179	0	-0.67029966	-0.07381493	0.45346815	0.16848150	0.00000010	0	-0.00000003	0	-6.80555413	0	0	0.00000005	0.00000000
36.90000000	29.09306402	721.65986998	54.11062185	0.96519551	0	-0.67059161	-0.10226924	0.37527067	0.27817054	-0.00000008	0	0.00000004	0	-6.79695064	0	0	-0.00000001	-0.00000000
36.91000000	31.91571916	727.43008564	54.55521592	0.95954810	0	-0.67094717	-0.10180619	0.30062876	0.29596795	-0.00000009	0	0.00000004	0	-6.81253212	0	0	-0.00000002	0.00000000
36.92000000	34.80049930	731.72661000	54.96010930	0.95400354	0	-0.67138442	-0.09544382	0.26257804	0.20373376	-0.00000005	0	0.00000002	0	-6.86239927	0	0	-0.00000002	-0.00000000
36.93000000	37.78568349	734.66365176	55.40869901	0.94852823	0	-0.67187850	-0.07695268	0.27998772	0.04383927	-0.00000002	0	0.00000001	0	-6.94998761	0	0	-0.00000001	0.00000000
36.94000000	40.69553547	736.49016690	55.90706822	0.94335519	0	-0.67243693	-0.00860217	0.34365529	-0.12274092	-0.00000002	0	0.00000001	0	-7.07191764	0	0	-0.00000002	0.00000000
36.95000000	43.30536943	737.41206684	56.45940754	0.93867623	0	-0.67307520	0.03502826	0.36481343	-0.18064774	-0.00000006	0	0.00000002	0	-7.24148962	0	0	-0.00000002	-0.00000000
36.96000000	45.62510557	737.56991564	57.03816148	0.93450787	0	-0.67381333	0.03939591	0.29432846	-0.19398494	-0.00000012	0	0.00000004	0	-7.44926601	0	0	-0.00000000	0.00000000
36.97000000	47.70446548	737.20748109	57.69203613	0.93077973	0	-0.67465098	0.08064455	0.15439586	-0.24377742	-0.00000014	0	0.00000005	0	-7.66921986	0	0	0.00000007	0.00000000
36.98000000	49.47756863	736.85333674	58.54512051	0.92748164	0	-0.67558620	0.14088006	0.03083046	-0.20267723	0.00000002	0	-0.00000000	0	-7.90860316	0	0	0.00000022	0.00000000
36.99000000	50.79312760	736.99052514	59.65044598	0.92474390	0	-0.67662988	0.18323129	0.03739150	-0.13337724	0.00000061	0	-0.00000020	0	-8.19125294	0	0	0.00000042	0.00000000
37	51.71875504	737.56758398	60.89544205	0.92255797	0	-0.67775102	0.18008962	0.06560206	-0.10112687	0.00000179	0	-0.00000062	0	-8.50492744	0	0	0.00000046	0.00000000
37.01000000	52.44724352	738.20757281	62.06311842	0.92072228	0	-0.67888561	0.13657663	0.08270239	-0.06267261	0.00000317	0	-0.00000112	0	-8.80356490	0	0	-0.00000019	-0.00000000
37.02000000	53.12018952	738.64403348	63.15562176	0.91899210	0	-0.67999856	0.09382801	0.07524697	-0.06034921	0.00000291	0	-0.00000108	0	-9.06490365	0	0	-0.00000230	0.00000000
37.03000000	53.74145774	738.67325405	64.29144974	0.91725889	0	-0.68108881	0.05512283	0.05873412	-0.07441610	-0.00000312	0	0.00000095	0	-9.29472651	0	0	-0.00000633	0.00000000
37.04000000	54.39723505	738.06166555	65.40547607	0.91522127	0	-0.68213294	-0.00051550	0.07371490	-0.03970324	-0.00002058	0	0.00000701	0	-9.49753253	0	0	-0.00001064	-0.00000000
37.05000000	55.45819383	736.57834353	66.12807551	0.91258103	0	-0.68303717	-0.05767876	0.16667959	-0.01880850	-0.00005113	0	0.00001782	0	-9.64665087	0	0	-0.00000853	-0.00000000
37.06000000	57.31334555	734.24813580	66.00462202	0.90912947	0	-0.68366482	-0.09250132	0.25370024	0.00451926	-0.00007835	0	0.00002796	0	-9.67390831	0	0	0.00001425	0.00000000
37.07000000	60.07915479	731.13079839	64.70425941	0.90482084	0	-0.68395246	-0.11612257	0.23988072	0.03863013	-0.00004578	0	0.00001792	0	-9.50369444	0	0	0.00007594	0.00000000
37.08000000	63.45952656	726.78160973	62.51672383	0.89985835	0	-0.68397503	-0.12248226	0.20955089	0.01588440	0.00015706	0	-0.00005118	0	-9.19759833	0	0	0.00017824	0.00000000
37.09000000	66.96083253	720.22459733	59.96234540	0.89449808	0	-0.68387954	-0.07723584	0.11387988	-0.01011526	0.00065403	0	-0.00022452	0	-8.84952666	0	0	0.00025729	0.00000000
37.10000000	70.12098320	710.65410855	57.34555104	0.88903673	0	-0.68375707	0.01848065	0.02097388	-0.03829175	0.00140504	0	-0.00049270	0	-8.50574365	0	0	0.00011112	-0.00000000
37.11000000	72.69813300	697.41638270	54.79833671	0.88372933	0	-0.68364815	0.10647698	0.05327214	-0.08537523	0.00181782	0	-0.00065575	0	-8.15833378	0	0	-0.00063569	0.00000000
37.12000000	74.52103346	679.74203209	52.30825550	0.87870003	0	-0.68352836	0.11699045	0.13890403	-0.05708026	0.00023273	0	-0.00013761	0	-7.81700325	0	0	-0.00236584	0.00000000
